<svg xmlns="http://www.w3.org/2000/svg">
    <defs>
        <symbol id="load"><path d="M 2 0 C 0.8919741 0 0 0.891974 0 2 L 0 5 L 0 10 L 0 18 C 0 19.108026 0.8919741 20 2 20 L 23 20 C 24.108026 20 25 19.108026 25 18 L 25 5 C 25 3.891974 24.108026 3 23 3 L 20.580078 3 A 5 5 0 0 0 16 0 A 5 5 0 0 0 11.429688 3 L 8 3 L 8 2 C 8 0.891974 7.108026 0 6 0 L 2 0 z M 2 1 L 6 1 C 6.5540259 1 7 1.445974 7 2 L 7 3 L 2 3 C 1.6330613 3 1.2950082 3.1042866 1 3.2753906 L 1 2 C 1 1.445974 1.4459741 1 2 1 z M 13.652344 1.7675781 A 5 5 0 0 1 14.990234 3 L 12.539062 3 A 4 4 0 0 1 13.652344 1.7675781 z M 2 4 L 15.578125 4 A 5 5 0 0 1 16 6 L 16 10 L 14 10 L 18.599609 15 L 23 10 L 21 10 L 21 5 A 5 5 0 0 0 20.898438 4 L 23 4 C 23.554026 4 24 4.445974 24 5 L 24 18 C 24 18.554026 23.554026 19 23 19 L 2 19 C 1.4459741 19 1 18.554026 1 18 L 1 5 C 1 4.445974 1.4459741 4 2 4 z" fill="currentColor"/></symbol> <!-- 25 x 20 -->
        <symbol id="pin"><path d="M 12.5,0 C 5.5964406,0 0,5.5964406 0,12.5 0.00434734,15.426852 1.0356133,18.259377 2.9140625,20.503906 L 12.5,32 22.097656,20.503906 C 23.971881,18.257753 24.99894,15.425392 25,12.5 25,5.5964406 19.403559,0 12.5,0 Z M 12.5,2 C 18.29899,2 23,6.7010101 23,12.5 22.999839,14.965474 22.132102,17.352267 20.548828,19.242188 L 12.5,28.878906 4.4648438,19.242188 C 2.8766391,17.35417 2.0039921,14.967183 2,12.5 2,6.7010101 6.7010101,2 12.5,2 Z" fill="currentColor"/></symbol> <!-- 25 x 32 -->
        <symbol id="pin-remove"><path d="M 1.5,1 0,2.5 2.2792969,4.7792969 C 2.1,5.3212735 2,5.898197 2,6.5 2,7.7878149 2.4566861,9.1120167 3.2832031,10.1 L 7.5,15 9.8144531,12.314453 11.5,14 13,12.5 Z M 7.5,1 C 6.6271066,1 5.8062471,1.211216 5.0742188,1.5742188 L 12.433594,8.9335938 C 12.790467,8.1709547 13,7.332605 13,6.5 13,3.462434 10.537566,1 7.5,1 Z" fill="currentColor"/></symbol> <!-- 15 x 15 -->
        <symbol id="remove"><path d="M 3.5,2 2,3.5 6,7.5 2,11.5 3.5,13 7.5,9 11.5,13 13,11.5 9,7.5 13,3.5 11.5,2 7.5,6 Z" fill="currentColor"/></symbol> <!-- 15 x 15 -->
    </defs>
</svg>
