<svg viewBox="0 0 25 32" width="25" height="32" xmlns="http://www.w3.org/2000/svg" opacity="0.5">
    <defs>
        <filter id="blur">
            <feGaussianBlur in="SourceGraphic" stdDeviation="2" />
        </filter>
    </defs>
    <path d="M 12.5,22 C 6.7010101,22 2,23.748888 2,25.90625 2.0036518,26.820891 2.8699152,27.706055 4.4478125,28.407471 L 12.5,32 20.562031,28.407471 C 22.13638,27.705548 22.99911,26.820435 23,25.90625 23,23.748888 18.29899,22 12.5,22 Z" fill="#000000" opacity="0.3" filter="url(#blur)"/>
    <path d="M 12.5,31 24,15 22,6 12.5,0 3,6 1,15 Z" fill="#ffffff"/>
    <path d="M 12.5,0 C 5.5964406,0 0,5.5964406 0,12.5 0.00434734,15.426852 1.0356133,18.259377 2.9140625,20.503906 L 12.5,32 22.097656,20.503906 C 23.971881,18.257753 24.99894,15.425392 25,12.5 25,5.5964406 19.403559,0 12.5,0 Z M 12.5,2 C 18.29899,2 23,6.7010101 23,12.5 22.999839,14.965474 22.132102,17.352267 20.548828,19.242188 L 12.5,28.878906 4.4648438,19.242188 C 2.8766391,17.35417 2.0039921,14.967183 2,12.5 2,6.7010101 6.7010101,2 12.5,2 Z" fill="#000000"/>
</svg>
